HIERARCHY
ROOT Spine
{
    OFFSET 0.0 0.0 -0.0
    CHANNELS 6 Xposition Yposition Zposition Zrotation Xrotation Yrotation
    JOINT ShoulderCenter
    {
        OFFSET 0.0 33.003990173339844 0.0
        CHANNELS 3 Zrotation Xrotation Yrotation
        JOINT LeftShoulder
        {
            OFFSET 18.716466903686523 0.0 0.0
            CHANNELS 3 Zrotation Xrotation Yrotation
            JOINT LeftElbow
            {
                OFFSET 28.854522705078125 0.0 0.0
                CHANNELS 3 Zrotation Xrotation Yrotation
                JOINT LeftHand
                {
                    OFFSET 32.45916748046875 0.0 0.0
                    CHANNELS 3 Zrotation Xrotation Yrotation
                    End Site
                    {
                        OFFSET 12.983667373657227 0.0 0.0
                    }
                }
            }
        }
        JOINT RightShoulder
        {
            OFFSET -18.716466903686523 0.0 0.0
            CHANNELS 3 Zrotation Xrotation Yrotation
            JOINT RightElbow
            {
                OFFSET -28.854522705078125 0.0 0.0
                CHANNELS 3 Zrotation Xrotation Yrotation
                JOINT RightHand
                {
                    OFFSET -32.45916748046875 0.0 0.0
                    CHANNELS 3 Zrotation Xrotation Yrotation
                    End Site
                    {
                        OFFSET -12.983667373657227 0.0 0.0
                    }
                }
            }
        }
        End Site
        {
            OFFSET 0.0 13.201595306396484 0.0
        }
    }
    JOINT LeftHip
    {
        OFFSET 15.539866733763192 -15.539866733763192 0.0
        CHANNELS 3 Zrotation Xrotation Yrotation
        JOINT LeftKnee
        {
            OFFSET 0.0 -41.1812744140625 0.0
            CHANNELS 3 Zrotation Xrotation Yrotation
            JOINT LeftFoot
            {
                OFFSET 0.0 -42.709556579589844 0.0
                CHANNELS 3 Zrotation Xrotation Yrotation
                End Site
                {
                    OFFSET 0.0 0.0 17.083824157714844
                }
            }
        }
    }
    JOINT RightHip
    {
        OFFSET -15.539866733763192 -15.539866733763192 0.0
        CHANNELS 3 Zrotation Xrotation Yrotation
        JOINT RightKnee
        {
            OFFSET 0.0 -41.1812744140625 0.0
            CHANNELS 3 Zrotation Xrotation Yrotation
            JOINT RightFoot
            {
                OFFSET 0.0 -42.709556579589844 0.0
                CHANNELS 3 Zrotation Xrotation Yrotation
                End Site
                {
                    OFFSET 0.0 0.0 17.083824157714844
                }
            }
        }
    }
}
MOTION
Frames: 10
Frame Time: 0.03333333333333333
-117.29999542236328 46.79999923706055 -59.79999923706055 -53.793054435354044 -6.08306957586311 88.70964348809663 -4.345159670809197e-07 -1.4834117257142727e-06 -1.134674511799288 132.16104076248354 -2.7890198487440205 -122.7136738973919 6.308538063458219e-06 -5.5791926612317095e-06 60.00672901367685 2.2860236773019026e-15 6.3611093629270335e-15 1.5902773407317582e-15 -114.48343789108343 16.43777565015926 105.46895956706047 -5.8119390404044514e-08 1.593775555208041e-06 -80.36657806457288 -1.1927080055488186e-15 6.361109362927033e-15 6.620859447075238e-32 16.65916029863743 -65.11471533730224 84.22041505608378 14.787539158477832 6.701103650954095 -17.87458382366586 2.4848083448933725e-16 -1.987846675914698e-16 8.479408476948633e-16 122.76327205997532 -79.05172980322472 61.505762129559514 -48.29269428038904 25.643592722226078 47.566731858712664 -1.5902773407317584e-15 4.827710013492361e-32 -3.4787316828507214e-15
-116.70000457763672 48.29999923706055 -59.89999771118164 -54.66507658963421 -4.87162155446293 88.42086168961238 -2.1121023119532695e-07 1.6370361414168218e-06 -3.124855737248707 128.81934151982577 -1.2766478731840198 -124.33306106907533 -8.954582340099114e-07 2.9671902872872485e-06 59.16639157211596 -2.5345045117912397e-15 2.41816546211537e-32 -1.0933156717530838e-15 -114.4353749641516 12.65527700843784 105.16032325121022 -5.4254176774857e-06 2.4591714729743072e-06 -81.14350270101656 -3.975693351829396e-16 0.0 0.0 26.58312138118468 -70.25401840819367 101.53285276655218 25.25847035541743 9.484475980438914 -32.516084270244725 2.1866313435061676e-15 4.1725207973755403e-32 2.1866313435061676e-15 109.83126803243661 -79.70397454699086 51.95048240945681 -41.79893556861603 25.74637590438343 41.25057358209008 1.517280289954742e-32 -1.5902773407317584e-15 1.0933156717530838e-15
-116.4000015258789 50.099998474121094 -59.500003814697266 -55.68032894982207 -5.0507266564220075 88.50120586585055 -4.4305248435200365e-06 -1.6914734426147844e-06 -4.169072752301541 128.0957814040754 -0.33942830937373514 -124.32255229865342 -3.872865906931026e-06 4.622690360842015e-07 57.71740415668358 6.957463365701443e-15 7.241565020238541e-32 1.1927080055488188e-15 -111.70862495316474 9.547649749241181 104.39547730147149 1.3720133606649026e-06 4.4002878586287736e-06 -80.95605948804352 3.975693351829396e-16 0.0 0.0 46.974076885283964 -75.33903539373054 124.6666995183474 38.7044437840759 11.29964887547671 -56.71140491855623 -7.951386703658794e-16 5.655317444376766e-32 -8.150171371250263e-15 101.86847551558783 -80.36061617105372 44.700533233045945 -37.30302209135256 24.701675213238385 37.23728815113732 -1.5902773407317582e-15 -5.103579157120495e-32 3.67751635044219e-15
-116.0 51.79999923706055 -58.999996185302734 -56.69771213716952 -5.5749798085350495 88.35557720773704 -2.11694342304189e-06 -2.3098936414093268e-06 -2.666634842818664 129.378276843359 -0.8630866342968121 -123.59492823954578 2.5608508818377024e-06 -5.5033843825855505e-06 58.24045851260661 3.975693351829396e-16 -9.939233379573487e-17 4.770832022195275e-15 -110.07581293162767 9.644494161585623 105.53036858757125 1.8491668484597998e-06 1.4016130830850486e-06 -81.71862255064835 1.1927080055488186e-15 -6.3611093629270335e-15 -3.1805546814635168e-15 82.91537149749702 -76.1655414886366 162.5402139009887 52.12908778406198 12.003733489290244 -87.28542047349072 -3.1805546814635168e-15 -1.5902773407317582e-15 -3.975693351829396e-15 91.1295206705633 -80.66982912558403 34.664586724656395 -32.1658557964911 22.9266012538829 32.71317811802695 0.0 0.0 -1.7890620083232284e-15
-115.5 53.500003814697266 -58.39999771118164 -58.34669020564791 -6.440758463831647 87.30860606343103 1.499735818194736e-06 -3.800398899968957e-07 -1.0906648488830453 133.1691745546738 -0.216672540201474 -123.6512613910469 1.8805670024134126e-06 -2.4730189096214915e-06 60.502490624182904 -1.5405811738338909e-15 1.603489397338534e-32 -1.1927080055488188e-15 -108.5592230189858 9.156711941258946 105.5435232777393 -2.0682776203528569e-07 2.6541533226736587e-06 -82.2621241958452 -7.951386703658791e-16 0.0 0.0 115.39116871854887 -72.95888753269054 -165.23878526158052 65.30882368510163 12.692078138008924 -115.21787331102382 0.0 0.0 -2.782985346280577e-15 81.0537384349905 -79.26199146775267 25.788845369966975 -25.642159625081888 21.320098445049247 27.37398661924588 2.981770013872047e-16 2.1255933039316253e-32 8.168807433836963e-15
-115.10000610351562 54.900001525878906 -58.099998474121094 -59.126297927590414 -6.965758354790697 88.16284158733988 2.2514974286418675e-06 -4.582642198334983e-07 0.8924248024483359 135.4993921437091 -1.2484848300595308 -122.43526730339782 2.4578383846225386e-06 -2.8792415563991044e-06 64.03573880678368 2.5842006786891076e-15 -6.261717029131298e-15 3.776908684237925e-15 -108.41474152117964 11.378602212533236 107.0799624064093 -4.53432636771826e-06 -1.2610053506867879e-06 -83.41794944717265 1.5902773407317584e-15 0.0 0.0 134.85149653170973 -68.48072556535108 -148.24828162993236 75.55247547786382 16.584926789158573 -121.02481632376266 -3.1805546814635168e-15 8.827812596100317e-32 -3.1805546814635168e-15 71.02262878926894 -80.65585031539672 14.040301744498445 -21.92775622425878 19.98259344539947 25.581030267108787 3.975693351829396e-16 -1.31899934297202e-32 -3.80175676768686e-15
-114.60000610351562 56.099998474121094 -57.79999923706055 -61.16622382100544 -7.3053820404621055 86.99975009985334 -1.3296896300636886e-06 -2.870879500935576e-07 4.0369596765546945 136.02591324268582 -0.7201995911839134 -121.05855864560108 -4.272747723829772e-06 -2.6777538811969274e-06 70.97996978744517 3.9756933518293984e-16 -5.9635400277440935e-15 4.770832022195275e-15 -108.8100506758708 13.677771777036094 108.12020863438637 9.548374247161176e-07 -1.4382242864277138e-06 -85.37706072472045 -7.951386703658792e-16 0.0 0.0 142.49739801085047 -59.539507048798804 -139.55921589467948 84.46266171893029 18.883770102461792 -125.45136381554704 -6.3611093629270335e-15 -3.531125038440127e-31 6.3611093629270335e-15 69.68374000440049 -78.61216829224887 15.141833407390095 -17.92890823780912 17.393043371642488 21.325437024543398 0.0 0.0 -2.7332891793827095e-16
-114.30000305175781 57.20000457763672 -57.70000076293945 -63.51322601755545 -6.96639794289795 86.74453962660563 1.882716337785934e-06 2.44756436451387e-06 3.6672799532585687 136.55157797464796 1.405704055828683 -122.32522597380294 8.700611076787767e-07 9.840368499505695e-08 81.46835142938549 0.0 -6.7586786981099735e-15 0.0 -109.03953125237783 13.966436292626659 107.36519274924704 1.8224528610243593e-06 2.8770135733968397e-06 -87.28008251509469 0.0 0.0 0.0 150.26883137417434 -52.71622423775106 -132.00961545335883 90.09983605191542 20.42592720696156 -125.122401067992 0.0 0.0 -2.782985346280577e-15 68.92452059616829 -78.72846307721963 16.441600765147506 -14.341662662645488 15.726258167806671 18.90062348697364 5.517382872562698e-33 -3.975693351829396e-16 1.5902773407317584e-15
-113.90000915527344 57.70000076293945 -57.900001525878906 -65.46919424045794 -6.2717037584303785 86.27631360472363 5.921673824897955e-07 3.6090587563989027e-06 2.9122470235026308 134.3821914790928 4.582628089805993 -121.69981268166661 -4.609818427053546e-06 -1.6601436946628443e-06 90.23076535549856 1.5902773407317582e-15 -7.951386703658792e-16 -3.1805546814635164e-15 -108.78574491925157 13.10427735387368 106.10152617235877 1.1915607739339236e-06 1.67806700962566e-06 -89.40967581250672 1.590277340731758e-15 6.361109362927032e-15 -8.827812596100317e-32 153.1269191038646 -45.8362676344524 -128.31698699272727 93.28023724823103 22.365514136584935 -119.47613349532197 0.0 0.0 4.770832022195275e-15 71.38695566563942 -78.38698441327642 21.250221223163933 -12.478192745893923 14.253158417388903 16.524763712258412 0.0 0.0 5.416882191867551e-15
-113.30000305175781 58.099998474121094 -57.599998474121094 -68.06829458000198 -7.499515687122855 84.93233186576735 -4.767972848118211e-06 -2.2388407513954002e-06 5.54225349780647 134.0230277913732 7.701047880831533 -117.82555575414769 4.235514198838775e-06 -3.527769074595576e-06 96.01615575817448 3.1805546814635156e-15 0.0 0.0 -106.04115177021593 14.655493618178493 105.20118605780279 -3.175389390870546e-06 2.067232266572816e-06 -91.47743753819381 7.951386703658792e-16 0.0 0.0 155.70093378462764 -38.55542192193267 -126.44740058266733 93.85753369590373 23.57650538377485 -111.59456919047983 -3.1805546814635168e-15 -5.517382872562698e-32 1.987846675914698e-15 76.00341109160989 -77.23849054379059 27.321688811058102 -9.234838582806464 12.975864856364346 14.266067394133321 -1.6552148617688095e-32 -7.951386703658792e-16 -2.3854160110976376e-15
